<?xml version="1.0" encoding="utf-8"?>
<!-- Generator: Adobe Illustrator 25.4.1, SVG Export Plug-In . SVG Version: 6.00 Build 0)  -->
<svg version="1.1" id="F.SilkS" xmlns="http://www.w3.org/2000/svg" xmlns:xlink="http://www.w3.org/1999/xlink" x="0px" y="0px"
	 viewBox="0 0 3708 374.1" style="enable-background:new 0 0 3708 374.1;" xml:space="preserve">
<g transform="translate(0.000000,726.000000) scale(0.100000,-0.100000)">
	<path d="M928,7249c-465-47-817-249-908-518c-19-59-20-82-20-896v-835l468,2l467,3l3,809l2,810l22,23c40,43,146,56,216,28
		c26-11,251-229,742-720c724-722,754-749,895-815c230-106,539-156,812-130c409,38,728,185,873,403c80,119,80,118,80,733v544h545h545
		v-845v-845h470h470v845v845h544h545l3-427l3-428l28-80c39-109,87-185,179-281c228-238,587-392,1058-456c72-10,319-13,1010-13
		c899,0,918,0,1061,22c429,67,766,218,980,440c96,99,156,194,191,298l23,70v710v710h-510h-510l-2-683c-2-675-2-685-23-728
		c-40-83-157-160-300-201c-61-17-122-18-920-18c-949,0-905-3-1044,67c-84,42-131,82-164,136l-27,47l-5,690l-5,690l-2542,2l-2543,3
		v-813v-814l-22-20c-48-43-147-56-216-28c-26,11-250,228-742,719c-448,448-725,717-760,739c-159,99-336,163-550,196
		C1254,7254,1027,7260,928,7249z"/>
	<path d="M12530,6990v-270l2048-2l2047-3l42-23c50-26,64-49,65-103c1-116-123-239-301-299c-135-45-187-47-1088-49
		c-469-1-858-3-865-6c-7-2-47-6-88-10c-272-21-642-116-895-228c-127-57-199-98-964-557l-724-435l633-3l633-2l442,265
		c464,278,516,305,667,353c223,71,336,82,868,82h445l350-350l350-350h703h704l1384,831c761,456,1400,837,1419,845
		c65,27,168,12,211-31l24-24v-811v-810l468,2l467,3l3,810c2,586,0,825-9,865c-54,260-361,475-785,551c-170,31-432,31-597,1
		c-129-24-274-68-370-111c-34-16-714-420-1512-899l-1450-871l-187,187l-188,186l93,18c527,100,909,350,1029,674c18,48,22,81,23,179
		c0,111-2,125-28,180c-95,203-324,359-642,436c-202,49-199,49-2382,49h-2043V6990z"/>
	<path d="M23125,7254c-391-30-723-131-983-300c-103-66-262-223-310-306c-18-31-45-89-60-130l-27-73v-315v-315l27-73
		c38-106,82-173,176-273c215-227,552-377,1002-446c92-14,291-17,1633-20l1527-4v295v295l-1477,4c-1654,4-1537-2-1700,76
		c-89,43-157,103-186,163c-15,31-17,70-17,300v263l30,51c35,63,85,103,182,149c144,68,62,65,1691,68l1472,2v295v295l-1470,1
		C23827,7256,23147,7255,23125,7254z"/>
	<path d="M26317,7254c-4-4-7-513-7-1131V5000h470h470v1130v1129l-463,1C26532,7260,26321,7257,26317,7254z"/>
	<path d="M28392,7250c-181-19-417-81-537-142c-194-99-329-237-375-385c-19-63-20-92-20-893v-829l470-1l470-1v806c0,559,3,813,11,827
		c27,50,152,73,227,43c26-11,252-231,747-724c640-638,718-713,790-755c206-119,439-181,710-190c557-18,1043,211,1140,537
		c13,43,15,172,15,884v832l-467-2l-468-2l-3-809l-2-810l-22-23c-37-39-142-56-205-32c-15,5-341,323-728,708
		c-765,764-774,772-968,851c-103,41-255,83-364,99C28710,7255,28490,7260,28392,7250z"/>
	<path d="M33535,7249c-634-51-1152-340-1297-724c-22-58-23-71-23-395s1-337,23-395c113-299,451-544,911-659c129-33,253-54,386-65
		c61-5,883-9,1828-10l1717-1v525v525h-490h-490v-230v-230h-1157c-647,0-1209,5-1273,10c-229,19-400,108-459,240c-19,41-21,65-21,290
		c0,236,1,247,24,295c41,88,128,153,276,207l65,23l1763,3l1762,2v300v300l-1722-1C34410,7258,33590,7253,33535,7249z"/>
	<path d="M23542,4249c-242-37-373-180-360-393c15-229,182-350,483-350c237,0,390,74,458,222c18,39,22,65,22,152c0,94-3,111-28,161
		c-66,134-201,204-417,214C23648,4257,23577,4255,23542,4249z M23833,4070c82-39,119-98,119-190c-1-138-84-208-258-218
		c-199-10-314,69-314,217c0,102,48,165,155,204C23607,4109,23766,4102,23833,4070z"/>
	<path d="M11780,4160v-80h150h150v-280v-280h100h100v280v280h150h150v80v80h-400h-400V4160z"/>
	<path d="M13430,3880v-360l368,2l367,3v75v75l-265,5c-146,3-264,8-262,13c1,4,2,32,2,62v55h245h245v80v80h-247h-248l3,55l4,55h259
		h259v80v80h-365h-365V3880z"/>
	<path d="M15356,4218c-7-13-85-160-171-328c-87-168-164-314-172-325c-27-41-19-45,92-45h105l35,70l35,70l197-2l196-3l34-67l34-68
		h110h110l-59,113c-33,61-115,218-182,347s-127,241-132,248c-7,8-43,12-114,12C15377,4240,15370,4238,15356,4218z M15540,3930
		c33-66,60-122,60-125s-56-5-125-5h-125l62,125c35,69,64,125,65,125C15479,4050,15507,3996,15540,3930z"/>
	<path d="M16805,4227c-3-6-4-167-3-357l3-345l97-3l98-3l2,245l3,245l130-245l129-245l94,3l94,3l129,245l129,245v-248v-248l98,3l97,3
		v355v355l-131,3l-130,3l-134-252c-74-138-140-258-146-266c-8-13-39,37-153,251l-142,266h-130C16844,4240,16808,4237,16805,4227z"/>
	<path d="M19965,4227c-3-6-4-167-3-357l3-345l98-3l97-3v146v145h236h235l-2,75l-2,75h-233h-234v60v60h245h245v80v80h-340
		C20046,4240,19968,4237,19965,4227z"/>
	<path d="M21540,3880v-361l98,3c112,3,99-16,101,156l1,102h103h103l107-130l107-130h110c61,0,110,3,110,6s-50,66-111,141
		c-87,104-109,137-98,144c8,5,17,9,22,9c4,0,27,18,51,40c34,31,47,53,56,91c24,97-5,192-70,236c-71,46-123,53-417,53h-273V3880z
		 M22089,4066c27-25,28-79,1-106c-18-18-33-20-187-20h-168l3,76l4,76l163-3C22048,4085,22070,4083,22089,4066z"/>
	<path d="M25050,3880v-361l98,3l97,3l2,205c2,113,3,221,3,240c0,29,20-3,128-205l127-240h95h95l125,237c69,130,126,235,128,233
		c2-1,4-108,5-236l2-234l98-3l97-3v361v360h-130h-130l-18-29c-9-16-73-135-142-265s-127-236-130-236s-68,118-145,263l-140,262
		l-132,3l-133,3V3880z"/>
	<path d="M28020,4160v-80h150h150l2-277l3-278l98-3l97-3v281v280h150h150v80v80h-400h-400V4160z"/>
	<path d="M29839,4213c-7-15-41-80-75-143s-112-213-173-332l-113-218h109h109l34,70l34,70h195h196l35-68l35-67l108-3
		c59-1,107,0,107,3c0,5-98,195-271,525l-98,185l-108,3l-109,3L29839,4213z M29968,3802c-67-1-123-1-125,2c-2,2,24,59,58,127l62,124
		l62-125l63-125L29968,3802z"/>
	<path d="M31290,3880v-361l98,3l97,3v355v355l-97,3l-98,3V3880z"/>
	<path d="M32340,4233c0-5,64-167,142-360l142-353h107h107l47,123c27,67,67,170,90,230c23,59,44,109,47,112s45-99,95-227l90-233h109
		h109l142,350c78,193,142,354,142,358c1,4-44,6-100,5l-101-3l-98-244l-97-243l-73,198c-40,110-81,219-90,244l-18,45l-108,3l-109,2
		l-90-235c-49-129-92-235-95-235s-47,106-98,235l-94,235h-99C32385,4240,32340,4237,32340,4233z"/>
	<path d="M34752,4223c-5-10-89-169-186-354c-97-186-176-340-176-343c0-4,48-5,108-4l107,3l33,68l33,67h198h197l34-70l34-70h109
		c60,0,107,4,105,9c-1,5-86,167-187,360l-183,351h-109C34776,4240,34759,4238,34752,4223z M34935,3925l61-125h-124
		c-68,0-122,4-120,8c16,41,114,242,118,242C34873,4050,34902,3993,34935,3925z"/>
	<path d="M36200,3880v-360h95h95v248v247l241-247l241-248h104h104v360v360h-95h-95v-246v-246l-241,246l-241,246h-104h-104V3880z"/>
</g>
</svg>
