<?xml version="1.0" standalone="no"?>
<!DOCTYPE svg PUBLIC "-//W3C//DTD SVG 20010904//EN"
 "http://www.w3.org/TR/2001/REC-SVG-20010904/DTD/svg10.dtd">
<svg version="1.0" xmlns="http://www.w3.org/2000/svg"
 width="2600.000000pt" height="726.000000pt" viewBox="0 0 2600.000000 726.000000"
 preserveAspectRatio="xMidYMid meet">
<metadata>
Created by potrace 1.16, written by Peter Selinger 2001-2019
</metadata>
<g transform="translate(0.000000,726.000000) scale(0.100000,-0.100000)"
fill="#000000" stroke="none">
<path d="M4688 4999 c-465 -47 -817 -249 -908 -518 -19 -59 -20 -82 -20 -896
l0 -835 468 2 467 3 3 809 2 810 22 23 c40 43 146 56 216 28 26 -11 251 -229
742 -720 724 -722 754 -749 895 -815 230 -106 539 -156 812 -130 409 38 728
185 873 403 80 119 80 118 80 733 l0 544 545 0 545 0 0 -845 0 -845 470 0 470
0 0 845 0 845 544 0 545 0 3 -427 3 -428 28 -80 c39 -109 87 -185 179 -281
228 -238 587 -392 1058 -456 72 -10 319 -13 1010 -13 899 0 918 0 1061 22 429
67 766 218 980 440 96 99 156 194 191 298 l23 70 0 710 0 710 -510 0 -510 0
-2 -683 c-2 -675 -2 -685 -23 -728 -40 -83 -157 -160 -300 -201 -61 -17 -122
-18 -920 -18 -949 0 -905 -3 -1044 67 -84 42 -131 82 -164 136 l-27 47 -5 690
-5 690 -2542 2 -2543 3 0 -813 0 -814 -22 -20 c-48 -43 -147 -56 -216 -28 -26
11 -250 228 -742 719 -448 448 -725 717 -760 739 -159 99 -336 163 -550 196
-96 15 -323 21 -422 10z"/>
<path d="M16290 4740 l0 -270 2048 -2 2047 -3 42 -23 c50 -26 64 -49 65 -103
1 -116 -123 -239 -301 -299 -135 -45 -187 -47 -1088 -49 -469 -1 -858 -3 -865
-6 -7 -2 -47 -6 -88 -10 -272 -21 -642 -116 -895 -228 -127 -57 -199 -98 -964
-557 l-724 -435 633 -3 633 -2 442 265 c464 278 516 305 667 353 223 71 336
82 868 82 l445 0 350 -350 350 -350 703 0 704 0 1384 831 c761 456 1400 837
1419 845 65 27 168 12 211 -31 l24 -24 0 -811 0 -810 468 2 467 3 3 810 c2
586 0 825 -9 865 -54 260 -361 475 -785 551 -170 31 -432 31 -597 1 -129 -24
-274 -68 -370 -111 -34 -16 -714 -420 -1512 -899 l-1450 -871 -187 187 -188
186 93 18 c527 100 909 350 1029 674 18 48 22 81 23 179 0 111 -2 125 -28 180
-95 203 -324 359 -642 436 -202 49 -199 49 -2382 49 l-2043 0 0 -270z"/>






</g>
</svg>
